<svg width="50" height="49" viewBox="0 0 50 49" fill="none" xmlns="http://www.w3.org/2000/svg">
<path d="M27.0742 13.3984L27.7129 15.7598L29.5273 14.1191L35.4121 8.79688L33.0166 16.3613L32.2783 18.6934L34.6914 18.2939L42.5205 16.998L36.415 22.0674L34.5322 23.6299L36.7783 24.5986L44.0645 27.7412L36.1885 28.7041L33.7598 29.001L35.126 31.0303L39.5557 37.6123L32.4102 34.165L30.207 33.1016L30.2588 35.5479L30.4258 43.4805L26.2783 36.7158L25 34.6299L23.7217 36.7158L19.5732 43.4805L19.7412 35.5479L19.793 33.1016L17.5898 34.165L10.4434 37.6123L14.874 31.0303L16.2402 29.001L13.8115 28.7041L5.93457 27.7412L13.2217 24.5986L15.4678 23.6299L13.585 22.0674L7.47852 16.998L15.3086 18.2939L17.7217 18.6934L16.9834 16.3613L14.5869 8.79688L20.4727 14.1191L22.2871 15.7598L22.9258 13.3984L25 5.73926L27.0742 13.3984Z" stroke="#EEDB6D" stroke-width="3"/>
</svg>
