<svg width="659" height="156" viewBox="0 0 659 156" fill="none" xmlns="http://www.w3.org/2000/svg">
<g clip-path="url(#clip0_82_481)">
<path d="M547.1 14.9805C548.473 -17.175 523.796 -47.1705 500.332 -39.5679C476.868 -31.9653 457.99 -9.33941 455.649 12.6467C453.307 34.6329 492.754 22.2413 510.397 29.9C528.088 37.6665 546.416 30.1528 547.1 14.9805Z" stroke="#5B5B5B" stroke-miterlimit="10"/>
<path d="M449.5 -43.5556C427.284 -34.3103 428.82 -11.9917 414.506 6.6579C406.14 17.6197 407.192 23.6125 409.554 29.2807C413.405 38.2922 430.851 44.0939 437.616 45.8633C458.19 51.435 491.191 48.6313 508.592 60.1388C539.422 80.3994 558.935 41.8599 566.723 21.9802C576.741 -3.41505 570.745 -22.3263 554.825 -32.6841C519.117 -55.5545 519.077 -72.3362 449.5 -43.5556Z" stroke="#5B5B5B" stroke-miterlimit="10"/>
<path d="M518.907 -72.1833C506.955 -87.0852 476.641 -70.4776 424.946 -61.7213C385.847 -55.0735 395.86 -11.9545 371.462 17.5761C346.363 48.0668 365.205 52.3826 392.546 60.9512C423.138 70.6658 481.154 67.7812 509.942 90.0955C553.217 123.591 575.418 53.2952 589.423 28.6513C609.673 -6.94014 598.052 -26.5268 577.96 -40.5273C557.272 -54.7809 527.299 -61.6594 518.907 -72.1833Z" stroke="#5B5B5B" stroke-miterlimit="10"/>
<path d="M530.863 -89.6332C519.04 -114.738 475.604 -90.3378 401.108 -80.5306C345.823 -73.3071 363.328 -12.5757 328.716 28.0123C292.023 70.8243 319.747 77.5588 363.023 84.3776C407.348 91.3776 477.195 90.0002 512.039 119.261C567.838 166.187 593.155 64.0683 613.405 34.4169C644.614 -11.2746 628.86 -33.5914 602.549 -49.1311C576.141 -64.8875 538.743 -73.025 530.863 -89.6332Z" stroke="#5B5B5B" stroke-miterlimit="10"/>
<path d="M637.214 39.3803C679.284 -15.964 659.314 -41.2278 627.141 -58.3423C594.835 -75.3968 550.278 -84.4099 542.946 -107.409C531.596 -142.333 474.599 -110.358 377.653 -99.5389C306.258 -91.557 331.292 -13.5625 286.49 37.823C238.692 93.0006 275.307 102.315 333.882 106.898C392.592 111.421 473.445 111.26 514.213 147.318C582.191 207.486 610.943 73.9765 637.214 39.3803Z" stroke="#5B5B5B" stroke-miterlimit="10"/>
<path d="M346.831 -110.478C275.82 -90.5214 278.674 -17.0441 236.962 37.5413C195.163 92.2947 223.11 109.388 273.787 127.503C302.378 137.703 347.873 132.216 392.185 132.048C441.174 131.871 483.467 141.67 507.224 181.616C553.699 259.898 635.86 89.8846 659.089 45.9897C691.64 -15.3982 668.683 -45.2072 633.652 -67.6969C598.486 -90.1266 552.805 -104.636 544.61 -134.28C532.466 -178.231 452.154 -140.012 346.831 -110.478Z" stroke="#5B5B5B" stroke-miterlimit="10"/>
<path d="M317.158 -121.471C246.493 -90.6562 226.973 -20.705 188.626 37.0362C152.596 91.2848 171.236 119.38 215.031 147.802C245.442 167.547 305.204 154.279 363.958 149.62C425.838 144.734 479.016 152.919 501.426 215.211C533.857 305.809 662.561 105.65 682.219 51.9562C706.674 -14.8824 679.461 -49.9102 641.496 -77.5603C603.531 -105.21 556.814 -125.338 547.907 -161.651C534.687 -214.176 431.328 -171.266 317.158 -121.471Z" stroke="#5B5B5B" stroke-miterlimit="10"/>
<path d="M291.117 -129.086C220.503 -88.0639 178.547 -21.0809 143.609 39.9284C112.929 93.4734 121.308 134.031 159.422 171.451C190.32 201.723 265.729 179.804 338.919 170.657C413.601 161.234 480.632 166.872 498.863 252.382C520.696 354.677 693.439 124.96 708.575 61.5006C725.892 -10.8288 693.336 -50.9821 652.569 -83.854C611.755 -116.834 563.913 -142.412 554.292 -185.395C540.531 -246.736 413.334 -200.206 291.117 -129.086Z" stroke="#5B5B5B" stroke-miterlimit="10"/>
</g>
<defs>
<clipPath id="clip0_82_481">
<rect width="656" height="539" fill="white" transform="translate(0 -35) rotate(-24)"/>
</clipPath>
</defs>
</svg>
